{
  "accessors": [
    {
      "bufferView": 2,
      "componentType": 5126,
      "count": 9184,
      "max": [
        17.743330001831055,
        45.90571594238281,
        26.135025024414063
      ],
      "min": [
        -17.743330001831055,
        -0.04013347625732422,
        -26.135025024414063
      ],
      "type": "VEC3"
    },
    {
      "bufferView": 2,
      "byteOffset": 110208,
      "componentType": 5126,
      "count": 9184,
      "max": [
        1.0,
        1.0,
        1.0
      ],
      "min": [
        -1.0,
        -1.0,
        -1.0
      ],
      "type": "VEC3"
    },
    {
      "bufferView": 3,
      "componentType": 5126,
      "count": 9184,
      "max": [
        1.0,
        1.0,
        1.0,
        1.0
      ],
      "min": [
        -1.0,
        -1.0,
        -1.0,
        -1.0
      ],
      "type": "VEC4"
    },
    {
      "bufferView": 1,
      "componentType": 5126,
      "count": 9184,
      "max": [
        0.9900000095367432,
        0.9875674843788147
      ],
      "min": [
        0.009999999776482582,
        0.009999999776482582
      ],
      "type": "VEC2"
    },
    {
      "bufferView": 0,
      "componentType": 5125,
      "count": 34590,
      "type": "SCALAR"
    },
    {
      "bufferView": 2,
      "byteOffset": 220416,
      "componentType": 5126,
      "count": 81,
      "max": [
        2.53446888923645,
        30.696857452392578,
        -5.652325630187988
      ],
      "min": [
        -2.5344700813293457,
        25.627918243408203,
        -13.825550079345703
      ],
      "type": "VEC3"
    },
    {
      "bufferView": 2,
      "byteOffset": 221388,
      "componentType": 5126,
      "count": 81,
      "max": [
        0.9999889135360718,
        0.9999889731407166,
        -0.0030735826585441828
      ],
      "min": [
        -0.9999889135360718,
        -0.9999889731407166,
        -0.7739200592041016
      ],
      "type": "VEC3"
    },
    {
      "bufferView": 1,
      "byteOffset": 73472,
      "componentType": 5126,
      "count": 81,
      "max": [
        0.7225907444953918,
        0.42728498578071594
      ],
      "min": [
        0.6190721392631531,
        0.3237549066543579
      ],
      "type": "VEC2"
    },
    {
      "bufferView": 0,
      "byteOffset": 138360,
      "componentType": 5125,
      "count": 384,
      "type": "SCALAR"
    }
  ],
  "asset": {
    "extras": {
      "author": "Juan Milanese (https://sketchfab.com/juanmilanese)",
      "license": "CC-BY-4.0 (http://creativecommons.org/licenses/by/4.0/)",
      "source": "https://sketchfab.com/3d-models/exterior-wall-lamp-a5616928a5264e9ba31d99781e35c4f2",
      "title": "Exterior Wall Lamp"
    },
    "generator": "Sketchfab-12.66.0",
    "version": "2.0"
  },
  "bufferViews": [
    {
      "buffer": 0,
      "byteLength": 139896,
      "name": "floatBufferViews",
      "target": 34963
    },
    {
      "buffer": 0,
      "byteLength": 74120,
      "byteOffset": 139896,
      "byteStride": 8,
      "name": "floatBufferViews",
      "target": 34962
    },
    {
      "buffer": 0,
      "byteLength": 222360,
      "byteOffset": 214016,
      "byteStride": 12,
      "name": "floatBufferViews",
      "target": 34962
    },
    {
      "buffer": 0,
      "byteLength": 146944,
      "byteOffset": 436376,
      "byteStride": 16,
      "name": "floatBufferViews",
      "target": 34962
    }
  ],
  "buffers": [
    {
      "byteLength": 583320,
      "uri": "scene.bin"
    }
  ],
  "images": [
    {
      "uri": "textures/Mat_Lamp_baseColor.png"
    },
    {
      "uri": "textures/Mat_Lamp_metallicRoughness.png"
    },
    {
      "uri": "textures/Mat_Lamp_normal.png"
    }
  ],
  "materials": [
    {
      "doubleSided": true,
      "name": "Mat_Lamp",
      "normalTexture": {
        "index": 2
      },
      "occlusionTexture": {
        "index": 1
      },
      "pbrMetallicRoughness": {
        "baseColorTexture": {
          "index": 0
        },
        "metallicRoughnessTexture": {
          "index": 1
        }
      }
    },
    {
      "emissiveFactor": [
        1.0,
        1.0,
        1.0
      ],
      "name": "Mat_Looz",
      "pbrMetallicRoughness": {
        "baseColorFactor": [
          0.715855893155135,
          0.5971881556612197,
          0.39882675982432314,
          1.0
        ],
        "metallicFactor": 0.75,
        "roughnessFactor": 0.16634908536585366
      }
    }
  ],
  "meshes": [
    {
      "name": "Lampara_Externa_Mat_Lamp_0",
      "primitives": [
        {
          "attributes": {
            "NORMAL": 1,
            "POSITION": 0,
            "TANGENT": 2,
            "TEXCOORD_0": 3
          },
          "indices": 4,
          "material": 0,
          "mode": 4
        }
      ]
    },
    {
      "name": "Lampara_Externa_Mat_Looz_0",
      "primitives": [
        {
          "attributes": {
            "NORMAL": 6,
            "POSITION": 5,
            "TEXCOORD_0": 7
          },
          "indices": 8,
          "material": 1,
          "mode": 4
        }
      ]
    }
  ],
  "nodes": [
    {
      "children": [
        1
      ],
      "matrix": [
        1.0,
        0.0,
        0.0,
        0.0,
        0.0,
        2.220446049250313e-16,
        -1.0,
        0.0,
        0.0,
        1.0,
        2.220446049250313e-16,
        0.0,
        0.0,
        0.0,
        0.0,
        1.0
      ],
      "name": "Sketchfab_model"
    },
    {
      "children": [
        2
      ],
      "matrix": [
        1.0,
        0.0,
        0.0,
        0.0,
        0.0,
        0.0,
        1.0,
        0.0,
        0.0,
        -1.0,
        0.0,
        0.0,
        0.0,
        0.0,
        0.0,
        1.0
      ],
      "name": "f353c30423e4428bb2bd8cddd6cde851.fbx"
    },
    {
      "children": [
        3
      ],
      "name": "RootNode"
    },
    {
      "children": [
        4
      ],
      "matrix": [
        1.0,
        0.0,
        0.0,
        0.0,
        0.0,
        2.220446049250313e-16,
        -1.0,
        0.0,
        0.0,
        1.0,
        2.220446049250313e-16,
        0.0,
        0.0,
        0.0,
        0.0,
        1.0
      ],
      "name": "Lampara_Externa"
    },
    {
      "children": [
        5,
        6
      ],
      "matrix": [
        1.0,
        0.0,
        -0.0,
        0.0,
        0.0,
        1.0,
        0.0,
        0.0,
        0.0,
        0.0,
        1.0,
        0.0,
        1.1982172587465811e-08,
        -0.056831687688827515,
        3.6293561458587646,
        1.0
      ],
      "name": "Object_4"
    },
    {
      "mesh": 0,
      "name": "Lampara_Externa_Mat_Lamp_0"
    },
    {
      "mesh": 1,
      "name": "Lampara_Externa_Mat_Looz_0"
    }
  ],
  "samplers": [
    {
      "magFilter": 9729,
      "minFilter": 9987,
      "wrapS": 10497,
      "wrapT": 10497
    }
  ],
  "scene": 0,
  "scenes": [
    {
      "name": "Sketchfab_Scene",
      "nodes": [
        0
      ]
    }
  ],
  "textures": [
    {
      "sampler": 0,
      "source": 0
    },
    {
      "sampler": 0,
      "source": 1
    },
    {
      "sampler": 0,
      "source": 2
    }
  ]
}
