{
  "accessors": [
    {
      "bufferView": 2,
      "componentType": 5126,
      "count": 3251,
      "max": [
        1.1648290157318115,
        4.04760217666626,
        4.368084907531738
      ],
      "min": [
        -1.1648290157318115,
        -4.2307939529418945,
        0.0
      ],
      "type": "VEC3"
    },
    {
      "bufferView": 2,
      "byteOffset": 39012,
      "componentType": 5126,
      "count": 3251,
      "max": [
        1.0,
        0.9998642206192017,
        1.0
      ],
      "min": [
        -1.0,
        -0.9991611242294312,
        -1.0
      ],
      "type": "VEC3"
    },
    {
      "bufferView": 3,
      "componentType": 5126,
      "count": 3251,
      "max": [
        1.0,
        0.9999896883964539,
        0.9989579916000366,
        1.0
      ],
      "min": [
        -1.0,
        -0.9999697208404541,
        -0.9997999668121338,
        -1.0
      ],
      "type": "VEC4"
    },
    {
      "bufferView": 1,
      "componentType": 5126,
      "count": 3251,
      "max": [
        0.9968240261077881,
        0.9992430210113525
      ],
      "min": [
        0.002778999973088503,
        0.001888000057078898
      ],
      "type": "VEC2"
    },
    {
      "bufferView": 0,
      "componentType": 5125,
      "count": 13470,
      "type": "SCALAR"
    },
    {
      "bufferView": 2,
      "byteOffset": 78024,
      "componentType": 5126,
      "count": 310,
      "max": [
        0.06820300221443176,
        4.205952167510986,
        3.003838062286377
      ],
      "min": [
        -0.06820300221443176,
        1.218569040298462,
        0.0
      ],
      "type": "VEC3"
    },
    {
      "bufferView": 2,
      "byteOffset": 81744,
      "componentType": 5126,
      "count": 310,
      "max": [
        0.9949643611907959,
        0.8809908628463745,
        0.8858426809310913
      ],
      "min": [
        -0.9949642419815063,
        -0.8809899091720581,
        -0.8858435153961182
      ],
      "type": "VEC3"
    },
    {
      "bufferView": 3,
      "byteOffset": 52016,
      "componentType": 5126,
      "count": 310,
      "max": [
        0.7948346734046936,
        0.9895564913749695,
        0.9949641823768616,
        1.0
      ],
      "min": [
        -0.8858263492584229,
        -0.9895585179328918,
        -0.9949598908424377,
        1.0
      ],
      "type": "VEC4"
    },
    {
      "bufferView": 1,
      "byteOffset": 26008,
      "componentType": 5126,
      "count": 310,
      "max": [
        0.9968240261077881,
        0.9882439970970154
      ],
      "min": [
        0.9206719994544983,
        0.0019310000352561474
      ],
      "type": "VEC2"
    },
    {
      "bufferView": 0,
      "byteOffset": 53880,
      "componentType": 5125,
      "count": 1440,
      "type": "SCALAR"
    }
  ],
  "asset": {
    "extras": {
      "author": "Piotr \"Pjot\" Dyderski (https://sketchfab.com/zachiar)",
      "license": "CC-BY-4.0 (http://creativecommons.org/licenses/by/4.0/)",
      "source": "https://sketchfab.com/3d-models/rusty-bicycle-08d23d386ea54399bf56e5f01a392674",
      "title": "Rusty Bicycle"
    },
    "generator": "Sketchfab-12.63.0",
    "version": "2.0"
  },
  "bufferViews": [
    {
      "buffer": 0,
      "byteLength": 59640,
      "name": "floatBufferViews",
      "target": 34963
    },
    {
      "buffer": 0,
      "byteLength": 28488,
      "byteOffset": 59640,
      "byteStride": 8,
      "name": "floatBufferViews",
      "target": 34962
    },
    {
      "buffer": 0,
      "byteLength": 85464,
      "byteOffset": 88128,
      "byteStride": 12,
      "name": "floatBufferViews",
      "target": 34962
    },
    {
      "buffer": 0,
      "byteLength": 56976,
      "byteOffset": 173592,
      "byteStride": 16,
      "name": "floatBufferViews",
      "target": 34962
    }
  ],
  "buffers": [
    {
      "byteLength": 230568,
      "uri": "scene.bin"
    }
  ],
  "images": [
    {
      "uri": "textures/initialShadingGroup_baseColor.png"
    },
    {
      "uri": "textures/initialShadingGroup_metallicRoughness.png"
    },
    {
      "uri": "textures/initialShadingGroup_normal.png"
    }
  ],
  "materials": [
    {
      "doubleSided": true,
      "name": "initialShadingGroup",
      "normalTexture": {
        "index": 2
      },
      "occlusionTexture": {
        "index": 1
      },
      "pbrMetallicRoughness": {
        "baseColorTexture": {
          "index": 0
        },
        "metallicRoughnessTexture": {
          "index": 1
        }
      }
    }
  ],
  "meshes": [
    {
      "name": "Object_0",
      "primitives": [
        {
          "attributes": {
            "NORMAL": 1,
            "POSITION": 0,
            "TANGENT": 2,
            "TEXCOORD_0": 3
          },
          "indices": 4,
          "material": 0,
          "mode": 4
        }
      ]
    },
    {
      "name": "Object_1",
      "primitives": [
        {
          "attributes": {
            "NORMAL": 6,
            "POSITION": 5,
            "TANGENT": 7,
            "TEXCOORD_0": 8
          },
          "indices": 9,
          "material": 0,
          "mode": 4
        }
      ]
    }
  ],
  "nodes": [
    {
      "children": [
        1
      ],
      "matrix": [
        1.0,
        0.0,
        0.0,
        0.0,
        0.0,
        2.220446049250313e-16,
        -1.0,
        0.0,
        0.0,
        1.0,
        2.220446049250313e-16,
        0.0,
        0.0,
        0.0,
        0.0,
        1.0
      ],
      "name": "Sketchfab_model"
    },
    {
      "children": [
        2,
        3
      ],
      "name": "15bf842eb01f4f7784b56ed46f31f92e.obj.cleaner.gles"
    },
    {
      "mesh": 0,
      "name": "Object_2"
    },
    {
      "mesh": 1,
      "name": "Object_3"
    }
  ],
  "samplers": [
    {
      "magFilter": 9729,
      "minFilter": 9987,
      "wrapS": 10497,
      "wrapT": 10497
    }
  ],
  "scene": 0,
  "scenes": [
    {
      "name": "Sketchfab_Scene",
      "nodes": [
        0
      ]
    }
  ],
  "textures": [
    {
      "sampler": 0,
      "source": 0
    },
    {
      "sampler": 0,
      "source": 1
    },
    {
      "sampler": 0,
      "source": 2
    }
  ]
}
