{
  "accessors": [
    {
      "bufferView": 2,
      "componentType": 5126,
      "count": 12188,
      "max": [
        35.70249557495117,
        9.454500198364258,
        14.458329200744629
      ],
      "min": [
        -60.162353515625,
        -48.322296142578125,
        -14.483720779418945
      ],
      "type": "VEC3"
    },
    {
      "bufferView": 2,
      "byteOffset": 146256,
      "componentType": 5126,
      "count": 12188,
      "max": [
        1.0,
        1.0,
        1.0
      ],
      "min": [
        -1.0,
        -1.0,
        -1.0
      ],
      "type": "VEC3"
    },
    {
      "bufferView": 3,
      "componentType": 5126,
      "count": 12188,
      "max": [
        0.9999901056289673,
        1.0,
        1.0,
        1.0
      ],
      "min": [
        -1.0,
        -1.0,
        -1.0,
        1.0
      ],
      "type": "VEC4"
    },
    {
      "bufferView": 1,
      "componentType": 5126,
      "count": 12188,
      "max": [
        0.977312445640564,
        0.98046875
      ],
      "min": [
        0.01953125,
        0.01953125
      ],
      "type": "VEC2"
    },
    {
      "bufferView": 0,
      "componentType": 5125,
      "count": 59958,
      "type": "SCALAR"
    }
  ],
  "asset": {
    "extras": {
      "author": "Teslya3D (https://sketchfab.com/Teslya3D)",
      "license": "CC-BY-4.0 (http://creativecommons.org/licenses/by/4.0/)",
      "source": "https://sketchfab.com/3d-models/old-streetlight-20bccf2a1c624dba903b9155c51e6496",
      "title": "Old Streetlight"
    },
    "generator": "Sketchfab-12.66.0",
    "version": "2.0"
  },
  "bufferViews": [
    {
      "buffer": 0,
      "byteLength": 239832,
      "name": "floatBufferViews",
      "target": 34963
    },
    {
      "buffer": 0,
      "byteLength": 97504,
      "byteOffset": 239832,
      "byteStride": 8,
      "name": "floatBufferViews",
      "target": 34962
    },
    {
      "buffer": 0,
      "byteLength": 292512,
      "byteOffset": 337336,
      "byteStride": 12,
      "name": "floatBufferViews",
      "target": 34962
    },
    {
      "buffer": 0,
      "byteLength": 195008,
      "byteOffset": 629848,
      "byteStride": 16,
      "name": "floatBufferViews",
      "target": 34962
    }
  ],
  "buffers": [
    {
      "byteLength": 824856,
      "uri": "scene.bin"
    }
  ],
  "images": [
    {
      "uri": "textures/lamp_01_baseColor.png"
    },
    {
      "uri": "textures/lamp_01_metallicRoughness.png"
    },
    {
      "uri": "textures/lamp_01_normal.png"
    }
  ],
  "materials": [
    {
      "doubleSided": true,
      "name": "lamp_01",
      "normalTexture": {
        "index": 2
      },
      "pbrMetallicRoughness": {
        "baseColorTexture": {
          "index": 0
        },
        "metallicRoughnessTexture": {
          "index": 1
        }
      }
    }
  ],
  "meshes": [
    {
      "name": "Line006_lamp_01_0",
      "primitives": [
        {
          "attributes": {
            "NORMAL": 1,
            "POSITION": 0,
            "TANGENT": 2,
            "TEXCOORD_0": 3
          },
          "indices": 4,
          "material": 0,
          "mode": 4
        }
      ]
    }
  ],
  "nodes": [
    {
      "children": [
        1
      ],
      "matrix": [
        1.0,
        0.0,
        0.0,
        0.0,
        0.0,
        2.220446049250313e-16,
        -1.0,
        0.0,
        0.0,
        1.0,
        2.220446049250313e-16,
        0.0,
        0.0,
        0.0,
        0.0,
        1.0
      ],
      "name": "Sketchfab_model"
    },
    {
      "children": [
        2
      ],
      "matrix": [
        1.0,
        0.0,
        0.0,
        0.0,
        0.0,
        0.0,
        1.0,
        0.0,
        0.0,
        -1.0,
        0.0,
        0.0,
        0.0,
        0.0,
        0.0,
        1.0
      ],
      "name": "old_streetlight.FBX"
    },
    {
      "children": [
        3
      ],
      "name": "RootNode"
    },
    {
      "children": [
        4
      ],
      "matrix": [
        2.893727068782836e-07,
        1.1753621224426887e-23,
        1.7761570215224982,
        0.0,
        -7.763829030038583e-08,
        1.7761570215225202,
        1.264888291112966e-14,
        0.0,
        -1.7761570215224967,
        -7.763829030038684e-08,
        2.893727068782836e-07,
        0.0,
        0.0,
        0.0,
        0.0,
        1.0
      ],
      "name": "Line006"
    },
    {
      "children": [
        5
      ],
      "matrix": [
        1.0,
        0.0,
        -0.0,
        0.0,
        0.0,
        1.0,
        0.0,
        0.0,
        0.0,
        0.0,
        1.0,
        0.0,
        60.162353515625,
        20.514585494995117,
        -8.06863226898713e-06,
        1.0
      ],
      "name": "Object_4"
    },
    {
      "mesh": 0,
      "name": "Line006_lamp_01_0"
    }
  ],
  "samplers": [
    {
      "magFilter": 9729,
      "minFilter": 9987,
      "wrapS": 10497,
      "wrapT": 10497
    }
  ],
  "scene": 0,
  "scenes": [
    {
      "name": "Sketchfab_Scene",
      "nodes": [
        0
      ]
    }
  ],
  "textures": [
    {
      "sampler": 0,
      "source": 0
    },
    {
      "sampler": 0,
      "source": 1
    },
    {
      "sampler": 0,
      "source": 2
    }
  ]
}
