{
  "accessors": [
    {
      "bufferView": 2,
      "componentType": 5126,
      "count": 82,
      "max": [
        0.45580801367759705,
        0.4334999918937683,
        46.60618591308594
      ],
      "min": [
        -0.45580801367759705,
        -0.4334999918937683,
        43.49551010131836
      ],
      "type": "VEC3"
    },
    {
      "bufferView": 2,
      "byteOffset": 984,
      "componentType": 5126,
      "count": 82,
      "max": [
        0.9992678761482239,
        0.9503604769706726,
        1.0
      ],
      "min": [
        -0.9992678761482239,
        -0.9503602385520935,
        -0.9171664118766785
      ],
      "type": "VEC3"
    },
    {
      "bufferView": 1,
      "componentType": 5126,
      "count": 82,
      "max": [
        0.75,
        1.0
      ],
      "min": [
        0.25,
        0.012236000038683414
      ],
      "type": "VEC2"
    },
    {
      "bufferView": 0,
      "componentType": 5125,
      "count": 414,
      "type": "SCALAR"
    },
    {
      "bufferView": 2,
      "byteOffset": 1968,
      "componentType": 5126,
      "count": 2093,
      "max": [
        4.465918064117432,
        3.9191789627075195,
        58.27650833129883
      ],
      "min": [
        -4.454442977905273,
        -3.929949998855591,
        37.23374557495117
      ],
      "type": "VEC3"
    },
    {
      "bufferView": 2,
      "byteOffset": 27084,
      "componentType": 5126,
      "count": 2093,
      "max": [
        0.9999442100524902,
        1.0,
        1.0
      ],
      "min": [
        -0.9999442100524902,
        -1.0,
        -1.0
      ],
      "type": "VEC3"
    },
    {
      "bufferView": 1,
      "byteOffset": 656,
      "componentType": 5126,
      "count": 2093,
      "max": [
        1.0,
        1.0411429405212402
      ],
      "min": [
        0.0,
        0.0
      ],
      "type": "VEC2"
    },
    {
      "bufferView": 0,
      "byteOffset": 1656,
      "componentType": 5125,
      "count": 7824,
      "type": "SCALAR"
    },
    {
      "bufferView": 2,
      "byteOffset": 52200,
      "componentType": 5126,
      "count": 1234,
      "max": [
        1.8462070226669312,
        1.620097041130066,
        51.85995101928711
      ],
      "min": [
        -1.8462070226669312,
        -1.620097041130066,
        41.14900588989258
      ],
      "type": "VEC3"
    },
    {
      "bufferView": 2,
      "byteOffset": 67008,
      "componentType": 5126,
      "count": 1234,
      "max": [
        0.9998451471328735,
        1.0,
        1.0
      ],
      "min": [
        -0.9998451471328735,
        -1.0,
        -1.0
      ],
      "type": "VEC3"
    },
    {
      "bufferView": 1,
      "byteOffset": 17400,
      "componentType": 5126,
      "count": 1234,
      "max": [
        0.65625,
        0.979066014289856
      ],
      "min": [
        0.34375,
        0.020934000611305237
      ],
      "type": "VEC2"
    },
    {
      "bufferView": 0,
      "byteOffset": 32952,
      "componentType": 5125,
      "count": 5616,
      "type": "SCALAR"
    },
    {
      "bufferView": 2,
      "byteOffset": 81816,
      "componentType": 5126,
      "count": 144,
      "max": [
        3.5361270904541016,
        3.097269058227539,
        48.18230438232422
      ],
      "min": [
        -3.5361270904541016,
        -3.097269058227539,
        41.33241653442383
      ],
      "type": "VEC3"
    },
    {
      "bufferView": 2,
      "byteOffset": 83544,
      "componentType": 5126,
      "count": 144,
      "max": [
        0.9935407638549805,
        0.9822841286659241,
        1.0
      ],
      "min": [
        -0.9935407638549805,
        -0.9822841286659241,
        -1.0
      ],
      "type": "VEC3"
    },
    {
      "bufferView": 1,
      "byteOffset": 27272,
      "componentType": 5126,
      "count": 144,
      "max": [
        0.5416669845581055,
        0.6884400248527527
      ],
      "min": [
        0.5,
        0.3125
      ],
      "type": "VEC2"
    },
    {
      "bufferView": 0,
      "byteOffset": 55416,
      "componentType": 5125,
      "count": 216,
      "type": "SCALAR"
    },
    {
      "bufferView": 2,
      "byteOffset": 85272,
      "componentType": 5126,
      "count": 1601,
      "max": [
        7.398560047149658,
        1.6265469789505005,
        62.81425857543945
      ],
      "min": [
        -2.045488119125366,
        -1.6265469789505005,
        49.48759078979492
      ],
      "type": "VEC3"
    },
    {
      "bufferView": 2,
      "byteOffset": 104484,
      "componentType": 5126,
      "count": 1601,
      "max": [
        1.0,
        0.9999116659164429,
        0.9906161427497864
      ],
      "min": [
        -1.0,
        -0.9999116659164429,
        -0.9938504695892334
      ],
      "type": "VEC3"
    },
    {
      "bufferView": 1,
      "byteOffset": 28424,
      "componentType": 5126,
      "count": 1601,
      "max": [
        1.0,
        1.0
      ],
      "min": [
        0.0,
        -0.0
      ],
      "type": "VEC2"
    },
    {
      "bufferView": 0,
      "byteOffset": 56280,
      "componentType": 5125,
      "count": 6534,
      "type": "SCALAR"
    }
  ],
  "asset": {
    "extras": {
      "author": "• Less • (https://sketchfab.com/lessart)",
      "license": "CC-BY-4.0 (http://creativecommons.org/licenses/by/4.0/)",
      "source": "https://sketchfab.com/3d-models/street-lantern-highpoly-f7625b12d5d04aaabe037524da18be96",
      "title": "Street lantern (highpoly)"
    },
    "generator": "Sketchfab-12.68.0",
    "version": "2.0"
  },
  "bufferViews": [
    {
      "buffer": 0,
      "byteLength": 82416,
      "name": "floatBufferViews",
      "target": 34963
    },
    {
      "buffer": 0,
      "byteLength": 41232,
      "byteOffset": 82416,
      "byteStride": 8,
      "name": "floatBufferViews",
      "target": 34962
    },
    {
      "buffer": 0,
      "byteLength": 123696,
      "byteOffset": 123648,
      "byteStride": 12,
      "name": "floatBufferViews",
      "target": 34962
    }
  ],
  "buffers": [
    {
      "byteLength": 247344,
      "uri": "scene.bin"
    }
  ],
  "materials": [
    {
      "doubleSided": true,
      "name": "lambert10SG",
      "pbrMetallicRoughness": {
        "baseColorFactor": [
          0.1852270276,
          0.1216788807,
          0.0510068396,
          1.0
        ],
        "roughnessFactor": 0.5
      }
    },
    {
      "doubleSided": true,
      "name": "lambert11SG",
      "pbrMetallicRoughness": {
        "baseColorFactor": [
          0.2086211296,
          0.152222136,
          0.0831067836,
          1.0
        ],
        "roughnessFactor": 0.5
      }
    },
    {
      "alphaMode": "BLEND",
      "doubleSided": true,
      "emissiveFactor": [
        1.0,
        1.0,
        1.0
      ],
      "name": "lambert7SG",
      "pbrMetallicRoughness": {
        "baseColorFactor": [
          1.0,
          1.0,
          1.0,
          0.2570945165
        ],
        "metallicFactor": 0.0,
        "roughnessFactor": 0.6
      }
    },
    {
      "alphaMode": "BLEND",
      "doubleSided": true,
      "emissiveFactor": [
        0.3819364215,
        0.3631273607587877,
        0.21435754281289934
      ],
      "name": "lambert8SG",
      "pbrMetallicRoughness": {
        "baseColorFactor": [
          0.4701441744,
          0.2574811487,
          0.0,
          0.1902081382
        ],
        "metallicFactor": 0.0,
        "roughnessFactor": 0.6
      }
    },
    {
      "doubleSided": true,
      "name": "lambert9SG",
      "pbrMetallicRoughness": {
        "baseColorFactor": [
          0.1777875835,
          0.1232387682,
          0.0619278042,
          1.0
        ],
        "roughnessFactor": 0.5
      }
    }
  ],
  "meshes": [
    {
      "name": "Object_0",
      "primitives": [
        {
          "attributes": {
            "NORMAL": 1,
            "POSITION": 0,
            "TEXCOORD_0": 2
          },
          "indices": 3,
          "material": 2,
          "mode": 4
        }
      ]
    },
    {
      "name": "Object_1",
      "primitives": [
        {
          "attributes": {
            "NORMAL": 5,
            "POSITION": 4,
            "TEXCOORD_0": 6
          },
          "indices": 7,
          "material": 0,
          "mode": 4
        }
      ]
    },
    {
      "name": "Object_2",
      "primitives": [
        {
          "attributes": {
            "NORMAL": 9,
            "POSITION": 8,
            "TEXCOORD_0": 10
          },
          "indices": 11,
          "material": 1,
          "mode": 4
        }
      ]
    },
    {
      "name": "Object_3",
      "primitives": [
        {
          "attributes": {
            "NORMAL": 13,
            "POSITION": 12,
            "TEXCOORD_0": 14
          },
          "indices": 15,
          "material": 3,
          "mode": 4
        }
      ]
    },
    {
      "name": "Object_4",
      "primitives": [
        {
          "attributes": {
            "NORMAL": 17,
            "POSITION": 16,
            "TEXCOORD_0": 18
          },
          "indices": 19,
          "material": 4,
          "mode": 4
        }
      ]
    }
  ],
  "nodes": [
    {
      "children": [
        1
      ],
      "matrix": [
        1.0,
        0.0,
        0.0,
        0.0,
        0.0,
        2.220446049250313e-16,
        -1.0,
        0.0,
        0.0,
        1.0,
        2.220446049250313e-16,
        0.0,
        0.0,
        0.0,
        0.0,
        1.0
      ],
      "name": "Sketchfab_model"
    },
    {
      "children": [
        2,
        3,
        4,
        5,
        6
      ],
      "name": "Lantern HP.obj.cleaner.materialmerger.gles"
    },
    {
      "mesh": 0,
      "name": "Object_2"
    },
    {
      "mesh": 1,
      "name": "Object_3"
    },
    {
      "mesh": 2,
      "name": "Object_4"
    },
    {
      "mesh": 3,
      "name": "Object_5"
    },
    {
      "mesh": 4,
      "name": "Object_6"
    }
  ],
  "scene": 0,
  "scenes": [
    {
      "name": "Sketchfab_Scene",
      "nodes": [
        0
      ]
    }
  ]
}
