{
  "accessors": [
    {
      "bufferView": 2,
      "componentType": 5126,
      "count": 13869,
      "max": [
        0.8044688701629639,
        0.27816227078437805,
        0.5094062685966492
      ],
      "min": [
        -1.0669260025024414,
        -0.27951154112815857,
        -0.5657299757003784
      ],
      "type": "VEC3"
    },
    {
      "bufferView": 2,
      "byteOffset": 166428,
      "componentType": 5126,
      "count": 13869,
      "max": [
        1.0,
        1.0,
        1.0
      ],
      "min": [
        -1.0,
        -1.0,
        -1.0
      ],
      "type": "VEC3"
    },
    {
      "bufferView": 3,
      "componentType": 5126,
      "count": 13869,
      "max": [
        0.9999998211860657,
        0.9999995231628418,
        0.9999976754188538,
        1.0
      ],
      "min": [
        -0.9999991655349731,
        -0.9999991059303284,
        -0.9999990463256836,
        -1.0
      ],
      "type": "VEC4"
    },
    {
      "bufferView": 1,
      "componentType": 5126,
      "count": 13869,
      "max": [
        0.968349814414978,
        0.9899734854698181
      ],
      "min": [
        0.008616349659860134,
        0.010487902909517288
      ],
      "type": "VEC2"
    },
    {
      "bufferView": 0,
      "componentType": 5125,
      "count": 53868,
      "type": "SCALAR"
    }
  ],
  "asset": {
    "extras": {
      "author": "patrakeevasveta (https://sketchfab.com/patrakeevasveta)",
      "license": "CC-BY-4.0 (http://creativecommons.org/licenses/by/4.0/)",
      "source": "https://sketchfab.com/3d-models/old-red-bicycle-577376dfd2f142359dbac143a49a2489",
      "title": "Old red bicycle"
    },
    "generator": "Sketchfab-12.66.0",
    "version": "2.0"
  },
  "bufferViews": [
    {
      "buffer": 0,
      "byteLength": 215472,
      "name": "floatBufferViews",
      "target": 34963
    },
    {
      "buffer": 0,
      "byteLength": 110952,
      "byteOffset": 215472,
      "byteStride": 8,
      "name": "floatBufferViews",
      "target": 34962
    },
    {
      "buffer": 0,
      "byteLength": 332856,
      "byteOffset": 326424,
      "byteStride": 12,
      "name": "floatBufferViews",
      "target": 34962
    },
    {
      "buffer": 0,
      "byteLength": 221904,
      "byteOffset": 659280,
      "byteStride": 16,
      "name": "floatBufferViews",
      "target": 34962
    }
  ],
  "buffers": [
    {
      "byteLength": 881184,
      "uri": "scene.bin"
    }
  ],
  "images": [
    {
      "uri": "textures/bicycle_baseColor.png"
    },
    {
      "uri": "textures/bicycle_metallicRoughness.png"
    },
    {
      "uri": "textures/bicycle_normal.png"
    }
  ],
  "materials": [
    {
      "alphaMode": "BLEND",
      "doubleSided": true,
      "name": "bicycle",
      "normalTexture": {
        "index": 2
      },
      "pbrMetallicRoughness": {
        "baseColorTexture": {
          "index": 0
        },
        "metallicRoughnessTexture": {
          "index": 1
        }
      }
    }
  ],
  "meshes": [
    {
      "name": "bicycle_bicycle_0",
      "primitives": [
        {
          "attributes": {
            "NORMAL": 1,
            "POSITION": 0,
            "TANGENT": 2,
            "TEXCOORD_0": 3
          },
          "indices": 4,
          "material": 0,
          "mode": 4
        }
      ]
    }
  ],
  "nodes": [
    {
      "children": [
        1
      ],
      "matrix": [
        0.010203874669969082,
        0.0,
        0.0,
        0.0,
        0.0,
        2.265715319797819e-18,
        -0.010203874669969082,
        0.0,
        0.0,
        0.010203874669969082,
        2.265715319797819e-18,
        0.0,
        0.0,
        0.0,
        0.0,
        1.0
      ],
      "name": "Sketchfab_model"
    },
    {
      "children": [
        2
      ],
      "matrix": [
        1.0,
        0.0,
        0.0,
        0.0,
        0.0,
        0.0,
        1.0,
        0.0,
        0.0,
        -1.0,
        0.0,
        0.0,
        0.0,
        0.0,
        0.0,
        1.0
      ],
      "name": "bicycle.fbx"
    },
    {
      "children": [
        3
      ],
      "name": "RootNode"
    },
    {
      "children": [
        4
      ],
      "matrix": [
        100.0,
        0.0,
        0.0,
        0.0,
        -0.0,
        -1.629206793918314e-05,
        -99.99999999999868,
        0.0,
        0.0,
        99.99999999999868,
        -1.629206793918314e-05,
        0.0,
        -0.0464756041765213,
        -53.862571716308594,
        -8.944747924804688,
        1.0
      ],
      "name": "bicycle"
    },
    {
      "mesh": 0,
      "name": "bicycle_bicycle_0"
    }
  ],
  "samplers": [
    {
      "magFilter": 9729,
      "minFilter": 9987,
      "wrapS": 10497,
      "wrapT": 10497
    }
  ],
  "scene": 0,
  "scenes": [
    {
      "name": "Sketchfab_Scene",
      "nodes": [
        0
      ]
    }
  ],
  "textures": [
    {
      "sampler": 0,
      "source": 0
    },
    {
      "sampler": 0,
      "source": 1
    },
    {
      "sampler": 0,
      "source": 2
    }
  ]
}
